<?xml version="1.0" standalone="no"?>
<!DOCTYPE svg PUBLIC "-//W3C//DTD SVG 20010904//EN"
 "http://www.w3.org/TR/2001/REC-SVG-20010904/DTD/svg10.dtd">
<svg version="1.0" xmlns="http://www.w3.org/2000/svg"
 width="24.000000pt" height="24.000000pt" viewBox="0 0 24.000000 24.000000"
 preserveAspectRatio="xMidYMid meet">

<g transform="translate(0.000000,24.000000) scale(0.100000,-0.100000)"
fill="#000000" stroke="none">
<path d="M0 193 c0 -27 4 -43 8 -36 4 6 7 -11 7 -37 0 -26 -3 -43 -7 -37 -4 7
-8 -9 -8 -35 l0 -48 48 0 c26 0 42 4 35 8 -6 4 11 7 37 7 26 0 43 -3 37 -7 -7
-4 9 -8 36 -8 l47 0 0 48 c0 26 -4 42 -8 35 -4 -6 -7 11 -7 37 0 26 3 43 7 37
4 -7 8 9 8 36 l0 47 -47 0 c-27 0 -43 -4 -36 -8 6 -4 -11 -7 -37 -7 -26 0 -43
3 -37 7 7 4 -9 8 -35 8 l-48 0 0 -47z m60 24 c0 -2 -10 -12 -22 -23 l-23 -19
19 23 c18 21 26 27 26 19z m145 -17 c10 -11 16 -20 13 -20 -3 0 -13 9 -23 20
-10 11 -16 20 -13 20 3 0 13 -9 23 -20z m-105 -44 c0 -3 -4 -8 -10 -11 -5 -3
-10 -1 -10 4 0 6 5 11 10 11 6 0 10 -2 10 -4z m0 -51 c0 -14 -4 -25 -10 -25
-5 0 -10 11 -10 25 0 14 5 25 10 25 6 0 10 -11 10 -25z m68 -2 c2 -13 -1 -23
-7 -23 -6 0 -11 9 -11 20 0 11 -4 20 -10 20 -5 0 -10 -9 -10 -20 0 -11 -4 -20
-10 -20 -5 0 -10 12 -10 26 0 22 4 25 28 22 19 -2 28 -9 30 -25z m-123 -63
c10 -11 16 -20 13 -20 -3 0 -13 9 -23 20 -10 11 -16 20 -13 20 3 0 13 -9 23
-20z m175 17 c0 -2 -10 -12 -22 -23 l-23 -19 19 23 c18 21 26 27 26 19z"/>
</g>
</svg>
