<?xml version="1.0" standalone="no"?>
<!DOCTYPE svg PUBLIC "-//W3C//DTD SVG 20010904//EN"
 "http://www.w3.org/TR/2001/REC-SVG-20010904/DTD/svg10.dtd">
<svg version="1.0" xmlns="http://www.w3.org/2000/svg"
 width="24.000000pt" height="24.000000pt" viewBox="0 0 24.000000 24.000000"
 preserveAspectRatio="xMidYMid meet">

<g transform="translate(0.000000,24.000000) scale(0.100000,-0.100000)"
fill="#000000" stroke="none">
<path d="M3 120 l0 -117 117 0 117 0 0 117 0 117 -117 0 -117 0 0 -117z m162
30 c5 -17 1 -29 -12 -40 -10 -8 -17 -23 -15 -33 5 -22 -20 -22 -45 1 -10 9
-14 13 -7 9 7 -4 15 -4 18 1 3 6 -1 12 -9 16 -9 3 -15 18 -15 39 0 32 1 33 40
32 33 0 40 -4 45 -25z"/>
</g>
</svg>
